<?xml version="1.0" encoding="utf-8"?>
<svg version="1.0" width="512.000000pt" height="336.000000pt" viewBox="0 0 512.000000 336.000000" preserveAspectRatio="xMidYMid meet" xmlns="http://www.w3.org/2000/svg">
  <defs/>
  <g transform="translate(0.000000,336.000000) scale(0.100000,-0.100000)" fill="#000000" stroke="none">
    <path d="M345 3341 c-33 -9 -71 -23 -83 -30 -23 -12 -23 -13 -5 -25 10 -7 416&#10;-242 903 -521 487 -279 911 -523 943 -541 l57 -33 0 584 0 585 -877 -1 c-803&#10;0 -883 -2 -938 -18z" style="fill: rgb(134, 134, 134);"/>
    <path d="M2320 2640 l0 -720 -1160 0 -1160 0 0 -240 0 -240 1160 0 1160 0 0&#10;-720 0 -720 240 0 240 0 0 720 0 720 1160 0 1160 0 0 240 0 240 -1160 0 -1160&#10;0 0 720 0 720 -240 0 -240 0 0 -720z" style="fill: rgb(134, 134, 134);"/>
    <path d="M2960 2779 c0 -514 2 -580 15 -575 21 8 1878 1076 1889 1086 12 12&#10;-58 45 -122 59 -37 8 -316 11 -917 11 l-865 0 0 -581z" style="fill: rgb(134, 134, 134);"/>
    <path d="M3953 2667 c-546 -315 -993 -575 -993 -579 0 -5 66 -8 148 -8 l147 0&#10;835 481 c1088 626 972 556 959 580 -17 32 -80 99 -93 98 -6 0 -458 -258 -1003&#10;-572z" style="fill: rgb(134, 134, 134);"/>
    <path d="M29 3050 c-13 -45 -18 -75 -12 -81 5 -5 353 -207 773 -449 l764 -440&#10;155 2 155 3 -894 515 c-492 283 -900 516 -907 518 -7 2 -20 -24 -34 -68z" style="fill: rgb(134, 134, 134);"/>
    <path d="M0 2476 l0 -396 687 0 c384 0 683 4 678 9 -12 10 -1329 770 -1350&#10;777 -13 5 -15 -41 -15 -390z" style="fill: rgb(134, 134, 134);"/>
    <path d="M4432 2481 c-370 -213 -675 -391 -679 -395 -3 -3 303 -6 680 -6 l687&#10;0 0 395 c0 217 -3 395 -7 395 -5 0 -311 -175 -681 -389z" style="fill: rgb(134, 134, 134);"/>
    <path d="M0 884 c0 -349 2 -395 15 -390 21 7 1338 767 1350 777 5 5 -294 9&#10;-678 9 l-687 0 0 -396z" style="fill: rgb(134, 134, 134);"/>
    <path d="M977 761 c-494 -285 -903 -523 -908 -528 -10 -10 61 -110 85 -119 15&#10;-6 1998 1136 2004 1154 3 9 -29 12 -140 11 l-143 0 -898 -518z" style="fill: rgb(134, 134, 134);"/>
    <path d="M3271 1276 c13 -11 1781 -1026 1788 -1026 12 0 41 76 44 114 2 29&#10;-13 38 -767 473 l-769 443 -150 0 c-83 0 -148 -2 -146 -4z" style="fill: rgb(134, 134, 134);"/>
    <path d="M3756 1271 c11 -10 1330 -770 1350 -778 12 -4 14 50 14 391 l0 396&#10;-687 0 c-380 0 -683 -4 -677 -9z" style="fill: rgb(134, 134, 134);"/>
    <path d="M1192 613 c-524 -301 -949 -550 -944 -555 4 -4 35 -18 68 -31 l59&#10;-22 893 -3 892 -2 0 580 c0 319 -3 580 -7 580 -5 0 -437 -246 -961 -547z" style="fill: rgb(134, 134, 134);"/>
    <path d="M2960 581 l0 -582 898 3 897 3 63 24 c35 13 60 27 55 31 -4 5 -165&#10;99 -358 211 -192 111 -614 354 -937 540 -323 187 -594 342 -603 345 -13 6 -15&#10;-57 -15 -575z" style="fill: rgb(134, 134, 134);"/>
  </g>
</svg>